<?xml version="1.0" encoding="utf-8"?>
<!-- Generator: Adobe Illustrator 16.0.0, SVG Export Plug-In . SVG Version: 6.00 Build 0)  -->
<!DOCTYPE svg PUBLIC "-//W3C//DTD SVG 1.1//EN" "http://www.w3.org/Graphics/SVG/1.1/DTD/svg11.dtd">
<svg version="1.1" id="Capa_1" xmlns="http://www.w3.org/2000/svg" xmlns:xlink="http://www.w3.org/1999/xlink" x="0px" y="0px"
	 width="205.138px" height="200.113px" viewBox="0 0 205.138 200.113" enable-background="new 0 0 205.138 200.113"
	 xml:space="preserve">
<g>
	<path fill-rule="evenodd" clip-rule="evenodd" fill="#E56727" d="M111.668,89.221c1.97-0.104,3.087-0.215,4.203-0.216
		c27.968-0.009,55.936,0.076,83.901-0.097c4.197-0.026,5.465,1.264,5.359,5.374c-0.313,12.143,0.94,9.842-9.659,9.936
		c-15.48,0.136-30.964,0.017-46.445,0.043c-7.468,0.013-9.479,3.587-5.698,10.171c10.188,17.737,20.423,35.448,30.629,53.175
		c1.23,2.138,2.401,4.31,3.738,6.714c-3.615,3.455-7.066,6.755-11.068,10.58C148.263,152.929,130.124,121.349,111.668,89.221z"/>
	<path fill-rule="evenodd" clip-rule="evenodd" fill="#E56727" d="M93.57,88.997c-18.564,32.324-36.657,63.829-55.038,95.834
		c-3.811-3.567-7.279-6.815-11.079-10.372c0.862-1.633,1.641-3.226,2.522-4.76c10.528-18.31,21.079-36.606,31.607-54.915
		c4.123-7.169,2.182-10.521-6.092-10.527c-16.813-0.014-33.629-0.14-50.439,0.092c-4.108,0.057-5.13-1.402-5.052-5.169
		c0.259-12.457-1.056-10.088,9.927-10.142c25.802-0.127,51.606-0.041,77.409-0.041C89.103,88.997,90.87,88.997,93.57,88.997z"/>
	<path fill-rule="evenodd" clip-rule="evenodd" fill="#E56727" d="M64.072,200.113c-4.411-2.219-8.492-4.271-13.077-6.577
		c17.234-29.3,34.211-58.159,51.567-87.667c17.775,29.38,35.133,58.07,52.75,87.188c-3.885,2.031-7.41,3.816-10.878,5.707
		c-2.981,1.625-3.804-0.768-4.875-2.557c-8.798-14.698-17.561-29.417-26.339-44.127c-1.534-2.571-3.042-5.16-4.646-7.688
		c-3.674-5.785-7.895-5.829-11.421,0.055c-9.49,15.835-18.863,31.74-28.285,47.616C67.357,194.611,65.836,197.153,64.072,200.113z"
		/>
	<path fill-rule="evenodd" clip-rule="evenodd" fill="#E56727" d="M103.165,43.59c-12.277,0.053-21.801-9.448-21.779-21.726
		C81.407,9.923,90.926,0.168,102.722,0c12.046-0.172,21.949,9.579,22.004,21.669C124.784,34.095,115.496,43.538,103.165,43.59z"/>
	<path fill-rule="evenodd" clip-rule="evenodd" fill="#E56727" d="M132.429,70.167c0-4.619,0.156-9.246-0.054-13.856
		c-0.144-3.166,0.768-4.733,4.176-4.344c1.645,0.188,3.488-0.387,4.945,0.166c1.275,0.484,2.998,2.03,3.04,3.162
		c0.272,7.32,0.277,14.66-0.006,21.979c-0.044,1.145-1.914,3.038-3.093,3.165c-3.787,0.409-7.691,0.499-11.458,0.006
		c-1.865-0.244-3.856-1.727-5.223-3.182c-4.613-4.916-8.972-10.07-13.427-15.133c-0.504,0.139-1.007,0.278-1.511,0.418
		c0,4.36-0.286,8.744,0.078,13.074c0.39,4.629-1.98,5.209-5.701,5.063c-3.33-0.131-6.277,0.221-5.996-4.777
		c0.373-6.643,0.207-13.324,0.046-19.983c-0.075-3.082,1.092-4.318,4.092-3.929c0.163,0.021,0.336,0.023,0.499-0.001
		c7.687-1.178,13.769,0.903,18.345,7.702c2.73,4.056,6.571,7.363,9.912,11.008C131.54,70.525,131.985,70.347,132.429,70.167z"/>
	<path fill-rule="evenodd" clip-rule="evenodd" fill="#E56727" d="M47.896,61.123c-4.064-1.048-8.183-1.929-12.18-3.19
		c-4.207-1.329-8.224-2.128-13.491,1.8c3.859,1.308,6.574,2.421,9.39,3.139c4.328,1.103,8.957,1.387,13.002,3.097
		c2.263,0.957,4.936,4.055,4.992,6.25c0.057,2.207-2.44,5.703-4.62,6.534c-9.725,3.711-19.821,3.68-29.79,0.68
		c-2.98-0.896-5.325-2.802-4.598-7.27c4.29,0.399,8.625-2.002,12.619,2.369c2.838,3.105,11.018,2.006,14.729-2.267
		c-3.913-1.063-7.238-2.02-10.593-2.861c-4.013-1.008-8.287-1.395-11.986-3.069c-2.127-0.963-4.457-3.854-4.629-6.04
		c-0.151-1.912,2.164-5.163,4.118-5.905c9.763-3.709,19.836-3.734,29.704-0.257c1.83,0.645,3.089,2.908,4.611,4.425
		C48.75,59.412,48.323,60.268,47.896,61.123z"/>
	<path fill-rule="evenodd" clip-rule="evenodd" fill="#E56727" d="M199.459,80.827c-6.536-1.21-12.499,2.667-16.352-4.202
		c-0.497-0.887-2.646-1.12-4.048-1.174c-3.984-0.153-7.982,0.048-11.969-0.093c-3.008-0.106-4.833,1.391-7.242,3.061
		c-3.044,2.109-7.624,2.002-11.541,2.851c-0.256-0.593-0.513-1.186-0.77-1.778c6.109-8.817,12.035-17.771,18.429-26.377
		c2.232-3.006,14.509-1.212,16.626,1.992C187.958,63.223,193.267,71.375,199.459,80.827z M172.773,58.097
		c-2.704,4.431-4.634,7.595-6.988,11.454c4.954,0,8.778,0,13.632,0C177.133,65.614,175.283,62.424,172.773,58.097z"/>
	<path fill-rule="evenodd" clip-rule="evenodd" fill="#E56727" d="M90.044,52.002c1.654,4.331,0.21,5.753-3.622,5.648
		c-4.325-0.118-8.677-0.245-12.975,0.126c-1.561,0.135-2.998,1.696-4.491,2.606c1.434,0.871,2.814,2.366,4.312,2.492
		c4.133,0.35,8.329-0.063,12.468,0.254c1.126,0.087,2.137,1.688,3.2,2.595c-1.061,0.954-2.058,2.629-3.195,2.731
		c-3.965,0.356-7.98,0.121-11.975,0.207c-2.307,0.049-4.85-0.206-4.914,3.365c-0.063,3.501,2.309,3.542,4.719,3.564
		c4.661,0.045,9.335-0.15,13.979,0.146c1.413,0.091,2.744,1.468,4.113,2.255c-1.281,0.874-2.545,2.475-3.846,2.506
		c-9.152,0.219-18.312,0.084-27.469,0.134c-2.568,0.015-4.027-0.651-3.964-3.66c0.152-7.155,0.116-14.318,0.012-21.476
		c-0.038-2.551,0.846-3.56,3.467-3.534C69.838,52.06,79.816,52.002,90.044,52.002z"/>
</g>
</svg>
